<?xml version="1.0" encoding="utf-8"?>
<!-- Generator: Adobe Illustrator 22.1.0, SVG Export Plug-In . SVG Version: 6.00 Build 0)  -->
<svg version="1.1" id="图层_1" xmlns="http://www.w3.org/2000/svg" xmlns:xlink="http://www.w3.org/1999/xlink" x="0px" y="0px"
	 viewBox="0 0 800 800" style="enable-background:new 0 0 800 800;" xml:space="preserve">
<style type="text/css">
	.st0{fill:url(#SVGID_1_);}
	.st1{fill:url(#SVGID_2_);}
	.st2{fill:url(#SVGID_3_);}
	.st3{fill:url(#SVGID_4_);}
	.st4{fill:url(#SVGID_5_);}
	.st5{fill:url(#SVGID_6_);}
	.st6{fill:url(#SVGID_7_);}
	.st7{fill:url(#SVGID_8_);}
	.st8{fill:url(#SVGID_9_);}
	.st9{fill:url(#SVGID_10_);}
	.st10{fill:url(#SVGID_11_);}
	.st11{fill:#FFFFFF;}
	.st12{fill:url(#SVGID_12_);}
	.st13{fill:url(#SVGID_13_);}
	.st14{fill:url(#SVGID_14_);}
	.st15{fill:url(#SVGID_15_);}
	.st16{fill:url(#SVGID_16_);}
	.st17{fill:url(#SVGID_17_);}
	.st18{fill:url(#SVGID_18_);}
	.st19{fill:url(#SVGID_19_);}
	.st20{fill:url(#SVGID_20_);}
	.st21{fill:url(#SVGID_21_);}
	.st22{fill:url(#SVGID_22_);}
	.st23{fill:url(#SVGID_23_);}
	.st24{fill:url(#SVGID_24_);}
	.st25{fill:url(#SVGID_25_);}
	.st26{fill:url(#SVGID_26_);}
	.st27{fill:url(#SVGID_27_);}
	.st28{fill:url(#SVGID_28_);}
</style>
<g id="暂无内容">
</g>
<g id="图层_2_1_">
</g>
<g id="图层_3">
</g>
<g id="图层_4">
</g>
<g id="图层_5">
</g>
<g id="图层_6">
</g>
<g id="图层_10">
</g>
<g>
	
		<linearGradient id="SVGID_1_" gradientUnits="userSpaceOnUse" x1="400" y1="483.3729" x2="400" y2="742.9875" gradientTransform="matrix(1 0 0 1 0 -198)">
		<stop  offset="9.590021e-08" style="stop-color:#F4F2FB"/>
		<stop  offset="1" style="stop-color:#E1EEF5"/>
	</linearGradient>
	<path class="st0" d="M439,304.7c-17.9,14.2-56.4,15.8-84.7-1c-28.2-16.9-80.4-14.7-94.5,16.3c-14.1,31,17.4,61.4,6,83.6
		c-11.4,22.3-49.4,53.8-23.4,91.8s59.2,28.3,79.1,24.5c39.3-7.5,88.7,54.1,144.2,7.5c32-26.8,79.7,19.7,98.2-38
		c15.3-47.6-40-65.2-23.4-97.2c17.7-34.1,14.3-74.4-4.9-94C517.8,280,469.9,280.3,439,304.7z"/>
	
		<linearGradient id="SVGID_2_" gradientUnits="userSpaceOnUse" x1="450.1555" y1="677.9" x2="450.1555" y2="584.6" gradientTransform="matrix(1 0 0 1 0 -198)">
		<stop  offset="0.5247" style="stop-color:#D0DCEB"/>
		<stop  offset="1" style="stop-color:#ECF1FB"/>
	</linearGradient>
	<polygon class="st1" points="413.4,386.6 534.5,386.6 497.2,449.6 429.4,479.9 365.9,469 	"/>
	<g>
		
			<linearGradient id="SVGID_3_" gradientUnits="userSpaceOnUse" x1="266.9316" y1="661.6006" x2="266.9316" y2="597.4667" gradientTransform="matrix(1 0 0 1 0 -198)">
			<stop  offset="0.2267" style="stop-color:#D0DCEB"/>
			<stop  offset="0.7893" style="stop-color:#ECF1FB"/>
		</linearGradient>
		<path class="st2" d="M267.3,399.6c0,0-0.1-0.3-0.2,0c-1.3,2.6-12.7,30.4-13.6,51.8c0,0-1.9,12.3,14.1,12.2
			c13.3-0.1,13-11.5,12.9-15.3C280.3,432.8,267.3,399.6,267.3,399.6z"/>
		<g>
			
				<linearGradient id="SVGID_4_" gradientUnits="userSpaceOnUse" x1="266.8555" y1="604.6" x2="266.8555" y2="675.2284" gradientTransform="matrix(1 0 0 1 0 -198)">
				<stop  offset="0" style="stop-color:#ECF1FB"/>
				<stop  offset="0.818" style="stop-color:#B6C9DD"/>
			</linearGradient>
			<path class="st3" d="M266.9,477.3c-0.3,0-0.5-0.2-0.5-0.5v-69.7c0-0.3,0.2-0.5,0.5-0.5s0.5,0.2,0.5,0.5v69.7
				C267.4,477.1,267.2,477.3,266.9,477.3z"/>
		</g>
	</g>
	<g>
		
			<linearGradient id="SVGID_5_" gradientUnits="userSpaceOnUse" x1="501.0466" y1="618.9009" x2="501.0466" y2="577.6111" gradientTransform="matrix(1 0 0 1 0 -198)">
			<stop  offset="0.2267" style="stop-color:#D0DCEB"/>
			<stop  offset="0.7893" style="stop-color:#ECF1FB"/>
		</linearGradient>
		<path class="st4" d="M501.4,379.7c0,0-0.1-0.2-0.2,0c-0.8,1.6-8.2,19.5-8.8,33.4c0,0-1.2,7.9,9.1,7.8c8.6-0.1,8.4-7.4,8.3-9.9
			C509.7,401,501.4,379.7,501.4,379.7z"/>
		<g>
			
				<linearGradient id="SVGID_6_" gradientUnits="userSpaceOnUse" x1="501.0555" y1="582.1765" x2="501.0555" y2="627.6765" gradientTransform="matrix(1 0 0 1 0 -198)">
				<stop  offset="0" style="stop-color:#ECF1FB"/>
				<stop  offset="0.818" style="stop-color:#B6C9DD"/>
			</linearGradient>
			<path class="st5" d="M501.1,429.6c-0.2,0-0.3-0.1-0.3-0.3v-44.9c0-0.2,0.1-0.3,0.3-0.3c0.2,0,0.3,0.1,0.3,0.3v44.9
				C501.4,429.5,501.3,429.6,501.1,429.6z"/>
		</g>
	</g>
	<g>
		
			<linearGradient id="SVGID_7_" gradientUnits="userSpaceOnUse" x1="527.5555" y1="663.5161" x2="527.5555" y2="647.4679" gradientTransform="matrix(1 0 0 1 0 -198)">
			<stop  offset="0.2267" style="stop-color:#D0DCEB"/>
			<stop  offset="0.7893" style="stop-color:#ECF1FB"/>
		</linearGradient>
		<circle class="st6" cx="527.6" cy="457.5" r="8"/>
		
			<linearGradient id="SVGID_8_" gradientUnits="userSpaceOnUse" x1="527.6555" y1="649.4961" x2="527.6555" y2="675.3257" gradientTransform="matrix(1 0 0 1 0 -198)">
			<stop  offset="0" style="stop-color:#ECF1FB"/>
			<stop  offset="0.818" style="stop-color:#B6C9DD"/>
		</linearGradient>
		<path class="st7" d="M527.7,477.3c-0.1,0-0.2-0.1-0.2-0.2v-25.3c0-0.1,0.1-0.2,0.2-0.2s0.2,0.1,0.2,0.2v25.3
			C527.9,477.2,527.8,477.3,527.7,477.3z"/>
	</g>
</g>
<g>
	
		<linearGradient id="SVGID_9_" gradientUnits="userSpaceOnUse" x1="453.4727" y1="663.5728" x2="335.5273" y2="545.6273" gradientTransform="matrix(1 0 0 1 0 -198)">
		<stop  offset="0.15" style="stop-color:#AFC5D8"/>
		<stop  offset="1" style="stop-color:#CBD7EB"/>
	</linearGradient>
	<circle class="st8" cx="394.5" cy="406.6" r="83.4"/>
	
		<linearGradient id="SVGID_10_" gradientUnits="userSpaceOnUse" x1="448.9171" y1="662.9171" x2="334.0829" y2="548.0829" gradientTransform="matrix(1 0 0 1 0 -198)">
		<stop  offset="0" style="stop-color:#B6CADC"/>
		<stop  offset="0.8851" style="stop-color:#DFE8F9"/>
	</linearGradient>
	<circle class="st9" cx="391.5" cy="407.5" r="81.2"/>
	<g>
		
			<linearGradient id="SVGID_11_" gradientUnits="userSpaceOnUse" x1="415.5875" y1="625.7875" x2="371.2125" y2="581.4125" gradientTransform="matrix(1 0 0 1 0 -198)">
			<stop  offset="0.15" style="stop-color:#AFC5D8"/>
			<stop  offset="1" style="stop-color:#CBD7EB"/>
		</linearGradient>
		<path class="st10" d="M393.4,437c-17.3,0-31.4-14.1-31.4-31.4s14.1-31.4,31.4-31.4s31.4,14.1,31.4,31.4S410.7,437,393.4,437z
			 M393.4,388c-9.7,0-17.6,7.9-17.6,17.6s7.9,17.6,17.6,17.6s17.6-7.9,17.6-17.6S403.1,388,393.4,388z"/>
	</g>
	<g>
		<path class="st11" d="M391.5,437c-16.3,0-29.5-13.2-29.5-29.5s13.2-29.5,29.5-29.5s29.5,13.2,29.5,29.5S407.8,437,391.5,437z
			 M391.5,390.9c-9.1,0-16.6,7.4-16.6,16.6c0,9.1,7.4,16.6,16.6,16.6c9.1,0,16.6-7.4,16.6-16.6C408.1,398.4,400.6,390.9,391.5,390.9
			z"/>
	</g>
	
		<linearGradient id="SVGID_12_" gradientUnits="userSpaceOnUse" x1="514.3878" y1="633.4613" x2="422.4578" y2="541.5313" gradientTransform="matrix(1 0 0 1 0 -198)">
		<stop  offset="0.15" style="stop-color:#AFC5D8"/>
		<stop  offset="1" style="stop-color:#CBD7EB"/>
	</linearGradient>
	<path class="st12" d="M519.9,357.6c-7.6-13.3-27.9-37.1-75.1-35.3c-2.6,0.1-3.7,3.2-1.7,4.8c14.4,11.7,44.3,43.4,46.5,89.8
		c-10.9-4.9-28.2-2.9-37.5,4.7s-14.1,19.1-8.1,29.3c6,10.3,30.6,20.3,51.9,2.7c20.1-16.6,13.2-66.6-12.3-99.8
		c-1.5-2,0.3-4.8,2.8-4.3c11.5,2.2,20.9,8,28.9,12.9C518.5,364.7,521.9,361,519.9,357.6z"/>
	
		<linearGradient id="SVGID_13_" gradientUnits="userSpaceOnUse" x1="511.0516" y1="632.0499" x2="421.7865" y2="542.7847" gradientTransform="matrix(1 0 0 1 0 -198)">
		<stop  offset="0" style="stop-color:#C1D2E4"/>
		<stop  offset="1" style="stop-color:#EBF3FF"/>
	</linearGradient>
	<path class="st13" d="M515.5,358c-7.3-13-26.5-36.4-71.3-34.6c-2.5,0.1-3.5,3.2-1.6,4.8c13.6,11.5,42.1,42.6,44.2,88.1
		c-10.4-4.8-26.7-2.8-35.6,4.6s-13.4,18.7-7.7,28.7c5.7,10.1,29.1,19.9,49.2,2.7c19.1-16.3,12.5-65.3-11.7-97.8
		c-1.5-2,0.3-4.7,2.7-4.2c10.9,2.1,21,6.1,28.6,10.8C514.4,362.3,516.7,360.1,515.5,358z"/>
</g>
<linearGradient id="SVGID_14_" gradientUnits="userSpaceOnUse" x1="333.4" y1="710.5" x2="333.4" y2="680.8382" gradientTransform="matrix(1 0 0 1 0 -198)">
	<stop  offset="7.460000e-02" style="stop-color:#B4C9DB"/>
	<stop  offset="0.9134" style="stop-color:#EAEEF8"/>
	<stop  offset="1" style="stop-color:#ECF0F9"/>
</linearGradient>
<polygon class="st14" points="317,509.5 349.8,482.8 327.1,512.5 "/>
<g>
	
		<linearGradient id="SVGID_15_" gradientUnits="userSpaceOnUse" x1="322.4198" y1="616.2172" x2="322.4198" y2="580.3808" gradientTransform="matrix(1 0 0 1 0 -198)">
		<stop  offset="0" style="stop-color:#4F5C7C"/>
		<stop  offset="1" style="stop-color:#274168"/>
	</linearGradient>
	<path class="st15" d="M319.1,382.4c0,0,4.9-0.6,6.5,3s-1.5,5.2-1.5,5.2l1.6,7.1c0,0,2.9,1.5,2.1,8.2c-0.7,6.7-8,12.2-8,12.2
		l-2.9-31L319.1,382.4z"/>
	
		<linearGradient id="SVGID_16_" gradientUnits="userSpaceOnUse" x1="322.6438" y1="599.9794" x2="322.6438" y2="585.5086" gradientTransform="matrix(1 0 0 1 0 -198)">
		<stop  offset="0" style="stop-color:#F4B9A4"/>
		<stop  offset="0.652" style="stop-color:#FAD1BB"/>
	</linearGradient>
	<path class="st16" d="M323.8,387.5c0,0,5.6,11.7,2.4,13.5s-4.7,0.5-4.7,0.5l-3.4-10.1L323.8,387.5z"/>
	
		<linearGradient id="SVGID_17_" gradientUnits="userSpaceOnUse" x1="318.9117" y1="667.1371" x2="318.9117" y2="710.7077" gradientTransform="matrix(1 0 0 1 0 -198)">
		<stop  offset="0" style="stop-color:#F4B9A4"/>
		<stop  offset="0.652" style="stop-color:#FAD1BB"/>
	</linearGradient>
	<path class="st17" d="M322.1,472.8c0,0-1.2,33.4-1.1,34.6s3.7,4.2,3.7,4.2l-2.1,1l-4.3-3.6c0,0-6.3-36.1-5-39.1
		C314.5,467,322.1,472.8,322.1,472.8z"/>
	
		<linearGradient id="SVGID_18_" gradientUnits="userSpaceOnUse" x1="299.9587" y1="666.7361" x2="299.9587" y2="692.3" gradientTransform="matrix(1 0 0 1 0 -198)">
		<stop  offset="0" style="stop-color:#F4B9A4"/>
		<stop  offset="0.652" style="stop-color:#FAD1BB"/>
	</linearGradient>
	<path class="st18" d="M308.2,472c0,0,1.8,3.1-1.9,4.6c-3.7,1.5-23.9,9.8-23.9,9.8l-1.3,6.2c0,0,2.5,2.2,2.3,1.6
		c-0.5-2.4,0.6-5.4,1.3-5.6c9.5-2,30.8-6,33.2-9.8c3.2-5.1-3-10.1-3-10.1L308.2,472z"/>
	
		<linearGradient id="SVGID_19_" gradientUnits="userSpaceOnUse" x1="308.6003" y1="636.9762" x2="308.6003" y2="624.6526" gradientTransform="matrix(1 0 0 1 0 -198)">
		<stop  offset="0" style="stop-color:#F4B9A4"/>
		<stop  offset="0.652" style="stop-color:#FAD1BB"/>
	</linearGradient>
	<path class="st19" d="M302.9,426.7c0,0,1.1,3.5,9.2,12.3c2.3-2.3,2.2-2.9,2.2-2.9l-5.8-9.1L302.9,426.7z"/>
	
		<linearGradient id="SVGID_20_" gradientUnits="userSpaceOnUse" x1="316.0619" y1="675.7971" x2="316.0619" y2="600.1414" gradientTransform="matrix(1 0 0 1 0 -198)">
		<stop  offset="0" style="stop-color:#FAD96E"/>
		<stop  offset="1" style="stop-color:#FFB32C"/>
	</linearGradient>
	<path class="st20" d="M312,403.1c0,0-5.6,8.7,0.2,20.9c1.9,3.4,1.9,7.2-1.3,13.1c-3.4,6.3-2.8,12.7-3.2,18.5
		c-0.3,5.8-1.5,15.2-6,15.4c2.3,3.6,11.5,7.9,24.1,6.4c-1.1-2.2,1.3-17.5,1-25.9s-1.3-11.1,0-19.3c1.1-7,1.1-10.1,1.1-10.1
		s5.1-4.2,0.8-10.6C324.3,405.1,318.9,399.9,312,403.1z"/>
	
		<linearGradient id="SVGID_21_" gradientUnits="userSpaceOnUse" x1="313.0431" y1="627.8408" x2="313.0431" y2="580.0076" gradientTransform="matrix(1 0 0 1 0 -198)">
		<stop  offset="0" style="stop-color:#4F5C7C"/>
		<stop  offset="1" style="stop-color:#274168"/>
	</linearGradient>
	<path class="st21" d="M325,385.7c0,0,0.4,3.5-3.3,7.3c3.9,6.4,4.3,12.8-0.8,16.1c-5,3.3-6.6-1.7-6.6-1.7s-2.8,5.6-1,8.6
		s3.9,10,4,12.8c-5,2.3-13.5,1.2-15.8-7.5c-0.5-2.6-0.6-4.8,0.1-7.4c0.8-2.6,1.1-2.8,0.2-5.7c-0.8-3-2.1-8.4,3.5-14.4
		c-0.2-6.1,3.7-10.5,10.7-9.6C317.9,381.2,324.4,380.9,325,385.7z"/>
	
		<linearGradient id="SVGID_22_" gradientUnits="userSpaceOnUse" x1="331.5024" y1="614.9109" x2="331.5024" y2="587.6754" gradientTransform="matrix(1 0 0 1 0 -198)">
		<stop  offset="0" style="stop-color:#F4B9A4"/>
		<stop  offset="0.652" style="stop-color:#FAD1BB"/>
	</linearGradient>
	<path class="st22" d="M341.2,391c0,0-3.2,1.3-3.5,3c-0.1,0.3-0.1,2.4-0.5,4c-0.8,3.8-2.1,9.9-2.4,11.3c-0.4,2-1.9,1.9-3.3,1.9
		c-1.8-0.1-6.9-1.2-10.8,0c-3.2,1-3,6.3,2.9,5.8c4.5-0.4,14.8-0.1,15.2-4.1c0.4-4,1-14.3,1-14.3s2-2.5,1.8-3.2s0.5-0.7,0.4-1.2
		s0.2-0.7-0.1-1.2c-0.6-1,3-2.6,2.4-3.2C344,389.4,341.2,391,341.2,391z"/>
	
		<linearGradient id="SVGID_23_" gradientUnits="userSpaceOnUse" x1="316.9596" y1="708.3903" x2="327.0701" y2="708.3903" gradientTransform="matrix(1 0 0 1 0 -198)">
		<stop  offset="0" style="stop-color:#4673BC"/>
		<stop  offset="0.652" style="stop-color:#6A94E0"/>
	</linearGradient>
	<path class="st23" d="M317.7,507.1c0,0-0.9,1.3-0.8,2.5c0.1,0.5,0.5,0.5,0.7,1.3c0.1,0.8,0.2,2.8,0.2,2.8h0.4c0,0,0-2.2,0-2.5
		s0.2-0.7,0.8-0.3c0.5,0.4,1.7,1.5,2.1,1.9s0.9,0.9,2.1,0.8c1.2-0.1,3.9-0.5,3.8-1s-1.7-1.2-2.6-1.2c-0.4,0.2-1.5,0.7-2.5-0.1
		c-1-0.9-3.5-3.4-3.7-3.6C318.1,507.3,317.8,507,317.7,507.1z"/>
	
		<linearGradient id="SVGID_24_" gradientUnits="userSpaceOnUse" x1="-629.6983" y1="-4609.4121" x2="-619.5899" y2="-4609.4121" gradientTransform="matrix(0.5823 0.813 -0.813 0.5823 -3100.8486 3683.0488)">
		<stop  offset="0" style="stop-color:#4673BC"/>
		<stop  offset="0.652" style="stop-color:#6A94E0"/>
	</linearGradient>
	<path class="st24" d="M283.1,485.8c0,0-1.6,0.1-2.5,0.8c-0.3,0.4-0.1,0.7-0.7,1.3c-0.6,0.6-2.2,1.7-2.2,1.7l0.2,0.3
		c0,0,1.8-1.3,2-1.4s0.7-0.2,0.7,0.4c0,0.7-0.2,2.3-0.4,2.8c-0.2,0.5-0.2,1.3,0.6,2.2c0.8,0.9,2.7,2.9,3.1,2.5s-0.1-2.1-0.5-2.8
		c-0.4-0.2-1.5-0.8-1.4-2.1c0.1-1.3,0.8-4.8,0.8-5.1C283.1,486.2,283.2,485.8,283.1,485.8z"/>
</g>
<linearGradient id="SVGID_25_" gradientUnits="userSpaceOnUse" x1="463.7409" y1="709.0144" x2="441.531" y2="686.8044" gradientTransform="matrix(1 0 0 1 0 -198)">
	<stop  offset="0.15" style="stop-color:#9FB6CC"/>
	<stop  offset="1" style="stop-color:#BFD0E1"/>
</linearGradient>
<path class="st25" d="M448.7,483.9l-2.1-0.2v5.7c0,0.3,0.1,0.5,0.3,0.7l9.3,9.3l-7.1,4.7v5.1c0,0.5,0.3,0.9,0.8,1
	c2.5,0.6,10.5,2.2,16.7-2.3c0.3-0.2,0.4-0.5,0.4-0.9c-0.1-4.3-0.3-6.3-0.3-6.3l-16-14.3L448.7,483.9z"/>
<linearGradient id="SVGID_26_" gradientUnits="userSpaceOnUse" x1="483.3678" y1="703.6179" x2="461.2561" y2="681.506" gradientTransform="matrix(1 0 0 1 0 -198)">
	<stop  offset="0.15" style="stop-color:#9FB6CC"/>
	<stop  offset="1" style="stop-color:#BFD0E1"/>
</linearGradient>
<path class="st26" d="M457.9,494l15.7-5.4l5.9,5.5l-9.6,3.3v5.4c0,0.9,0.6,1.6,1.5,1.8c3.2,0.5,10.7,1.2,14.9-1.8
	c0.5-0.3,0.8-0.9,0.8-1.5c0-3.2-0.2-6-0.2-6L473.7,484l-19,6.3L457.9,494z"/>
<linearGradient id="SVGID_27_" gradientUnits="userSpaceOnUse" x1="465.749" y1="686.799" x2="455.9677" y2="677.0177" gradientTransform="matrix(1 0 0 1 0 -198)">
	<stop  offset="0.15" style="stop-color:#9FB6CC"/>
	<stop  offset="1" style="stop-color:#BFD0E1"/>
</linearGradient>
<polygon class="st27" points="453.2,488.6 468.4,484.3 470.4,483.7 472.1,482.5 468.3,478.9 449.6,485.3 "/>
<linearGradient id="SVGID_28_" gradientUnits="userSpaceOnUse" x1="475.8734" y1="705.488" x2="449.3809" y2="678.9955" gradientTransform="matrix(1 0 0 1 0 -198)">
	<stop  offset="0" style="stop-color:#B6CADC"/>
	<stop  offset="0.8851" style="stop-color:#DFE8F9"/>
</linearGradient>
<path class="st28" d="M486.1,494c-0.8-0.8-18.2-16.5-18.2-16.5l-21.3,6.2l14.8,14.9c0,0-2.6-0.3-5.8,0.5c-3.3,0.8-6.6,3-6.3,5.1
	s5.6,3.6,11.8,2.1c6.2-1.5,6.1-5.3,5.7-5.8c-0.3-0.4-6.2-5.9-10.6-10.1l17.6-5.4c3,2.8,6.5,6,8.4,7.5c-1.6-0.1-4.7,0.2-7.2,0.7
	s-6.2,2.6-4.7,4.9s6.4,2.8,11.9,1.2C487.7,497.7,487.3,495,486.1,494z M453.2,487.7c-1.2-1.2-2-1.9-2-1.9l17.6-5.5
	c0,0,0.9,0.8,2.2,2L453.2,487.7z"/>
<g id="图层_12">
</g>
<g id="图层_13">
</g>
<g id="图层_14">
</g>
<g id="图层_15">
</g>
<g id="图层_16">
</g>
<g id="图层_17">
</g>
<g id="图层_18">
</g>
<g id="图层_19">
</g>
</svg>
